G04 #@! TF.GenerationSoftware,KiCad,Pcbnew,(6.0.9)*
G04 #@! TF.CreationDate,2022-11-30T18:40:26+01:00*
G04 #@! TF.ProjectId,parasite - 45deg,70617261-7369-4746-9520-2d2034356465,1.2.0*
G04 #@! TF.SameCoordinates,Original*
G04 #@! TF.FileFunction,Copper,L2,Inr*
G04 #@! TF.FilePolarity,Positive*
%FSLAX46Y46*%
G04 Gerber Fmt 4.6, Leading zero omitted, Abs format (unit mm)*
G04 Created by KiCad (PCBNEW (6.0.9)) date 2022-11-30 18:40:26*
%MOMM*%
%LPD*%
G01*
G04 APERTURE LIST*
G04 #@! TA.AperFunction,ViaPad*
%ADD10C,0.800000*%
G04 #@! TD*
G04 #@! TA.AperFunction,Conductor*
%ADD11C,0.250000*%
G04 #@! TD*
G04 APERTURE END LIST*
D10*
X97559132Y-61034012D03*
X91884954Y-69253775D03*
X108784806Y-66071794D03*
X110761046Y-46311910D03*
X101890161Y-68510959D03*
X94986174Y-58657223D03*
X102350134Y-63314078D03*
X94491199Y-71738698D03*
X105079770Y-47184061D03*
X93511299Y-64374738D03*
X102350134Y-72506466D03*
X107183766Y-49288058D03*
X117083261Y-59541106D03*
X104620054Y-61026765D03*
X89152543Y-68733494D03*
X101508881Y-49270026D03*
X105592776Y-51957102D03*
X94526555Y-76935933D03*
X114078057Y-64314077D03*
X115875541Y-59187553D03*
X101721082Y-50348718D03*
X110835416Y-47757729D03*
X99344930Y-50409379D03*
X107006989Y-44868640D03*
D11*
X105310217Y-51674543D02*
X101792077Y-51674543D01*
X105592776Y-51957102D02*
X105310217Y-51674543D01*
X101792077Y-51674543D02*
X100819805Y-50702271D01*
X100819805Y-49959102D02*
X101508881Y-49270026D01*
X100819805Y-50702271D02*
X100819805Y-49959102D01*
X115875541Y-52676532D02*
X110956738Y-47757729D01*
X101721082Y-50348718D02*
X103665626Y-48404174D01*
X110956738Y-47757729D02*
X110835416Y-47757729D01*
X103665626Y-48404174D02*
X110188970Y-48404174D01*
X115875541Y-59187553D02*
X115875541Y-52676532D01*
X110188970Y-48404174D02*
X110835416Y-47757729D01*
X104885669Y-44868640D02*
X99344930Y-50409379D01*
X107006989Y-44868640D02*
X104885669Y-44868640D01*
M02*
