M48
; DRILL file {KiCad (6.0.9)} date Wed Nov 30 18:40:28 2022
; FORMAT={-:-/ absolute / inch / decimal}
; #@! TF.CreationDate,2022-11-30T18:40:28+01:00
; #@! TF.GenerationSoftware,Kicad,Pcbnew,(6.0.9)
; #@! TF.FileFunction,Plated,1,4,PTH
FMAT,2
INCH
; #@! TA.AperFunction,Plated,PTH,ViaDrill
T1C0.0157
%
G90
G05
T1
X3.5099Y-2.706
X3.6175Y-2.7265
X3.6815Y-2.5344
X3.7201Y-2.8244
X3.7215Y-3.029
X3.7396Y-2.3093
X3.8409Y-2.4029
X3.9112Y-1.9846
X3.9964Y-1.9398
X4.0048Y-1.9822
X4.0114Y-2.6973
X4.0295Y-2.4927
X4.0295Y-2.8546
X4.1189Y-2.4026
X4.137Y-1.8576
X4.1572Y-2.0456
X4.2129Y-1.7665
X4.2198Y-1.9405
X4.2829Y-2.6013
X4.3607Y-1.8233
X4.3636Y-1.8802
X4.4913Y-2.5321
X4.562Y-2.3302
X4.6096Y-2.3441
T0
M30
