G04 #@! TF.GenerationSoftware,KiCad,Pcbnew,(6.0.9)*
G04 #@! TF.CreationDate,2022-11-30T18:40:26+01:00*
G04 #@! TF.ProjectId,parasite - 45deg,70617261-7369-4746-9520-2d2034356465,1.2.0*
G04 #@! TF.SameCoordinates,Original*
G04 #@! TF.FileFunction,Copper,L1,Top*
G04 #@! TF.FilePolarity,Positive*
%FSLAX46Y46*%
G04 Gerber Fmt 4.6, Leading zero omitted, Abs format (unit mm)*
G04 Created by KiCad (PCBNEW (6.0.9)) date 2022-11-30 18:40:26*
%MOMM*%
%LPD*%
G01*
G04 APERTURE LIST*
G04 Aperture macros list*
%AMRoundRect*
0 Rectangle with rounded corners*
0 $1 Rounding radius*
0 $2 $3 $4 $5 $6 $7 $8 $9 X,Y pos of 4 corners*
0 Add a 4 corners polygon primitive as box body*
4,1,4,$2,$3,$4,$5,$6,$7,$8,$9,$2,$3,0*
0 Add four circle primitives for the rounded corners*
1,1,$1+$1,$2,$3*
1,1,$1+$1,$4,$5*
1,1,$1+$1,$6,$7*
1,1,$1+$1,$8,$9*
0 Add four rect primitives between the rounded corners*
20,1,$1+$1,$2,$3,$4,$5,0*
20,1,$1+$1,$4,$5,$6,$7,0*
20,1,$1+$1,$6,$7,$8,$9,0*
20,1,$1+$1,$8,$9,$2,$3,0*%
%AMRotRect*
0 Rectangle, with rotation*
0 The origin of the aperture is its center*
0 $1 length*
0 $2 width*
0 $3 Rotation angle, in degrees counterclockwise*
0 Add horizontal line*
21,1,$1,$2,0,0,$3*%
G04 Aperture macros list end*
G04 #@! TA.AperFunction,SMDPad,CuDef*
%ADD10RoundRect,0.140000X0.021213X-0.219203X0.219203X-0.021213X-0.021213X0.219203X-0.219203X0.021213X0*%
G04 #@! TD*
G04 #@! TA.AperFunction,SMDPad,CuDef*
%ADD11RoundRect,0.140000X0.219203X0.021213X0.021213X0.219203X-0.219203X-0.021213X-0.021213X-0.219203X0*%
G04 #@! TD*
G04 #@! TA.AperFunction,SMDPad,CuDef*
%ADD12RoundRect,0.135000X0.035355X-0.226274X0.226274X-0.035355X-0.035355X0.226274X-0.226274X0.035355X0*%
G04 #@! TD*
G04 #@! TA.AperFunction,SMDPad,CuDef*
%ADD13RoundRect,0.135000X-0.226274X-0.035355X-0.035355X-0.226274X0.226274X0.035355X0.035355X0.226274X0*%
G04 #@! TD*
G04 #@! TA.AperFunction,SMDPad,CuDef*
%ADD14RoundRect,0.135000X0.226274X0.035355X0.035355X0.226274X-0.226274X-0.035355X-0.035355X-0.226274X0*%
G04 #@! TD*
G04 #@! TA.AperFunction,SMDPad,CuDef*
%ADD15C,1.000000*%
G04 #@! TD*
G04 #@! TA.AperFunction,SMDPad,CuDef*
%ADD16RoundRect,0.135000X-0.035355X0.226274X-0.226274X0.035355X0.035355X-0.226274X0.226274X-0.035355X0*%
G04 #@! TD*
G04 #@! TA.AperFunction,SMDPad,CuDef*
%ADD17RoundRect,0.150000X0.309359X0.521491X-0.521491X-0.309359X-0.309359X-0.521491X0.521491X0.309359X0*%
G04 #@! TD*
G04 #@! TA.AperFunction,SMDPad,CuDef*
%ADD18RotRect,1.000000X1.800000X135.000000*%
G04 #@! TD*
G04 #@! TA.AperFunction,SMDPad,CuDef*
%ADD19RoundRect,0.218750X0.026517X-0.335876X0.335876X-0.026517X-0.026517X0.335876X-0.335876X0.026517X0*%
G04 #@! TD*
G04 #@! TA.AperFunction,SMDPad,CuDef*
%ADD20RoundRect,0.140000X-0.021213X0.219203X-0.219203X0.021213X0.021213X-0.219203X0.219203X-0.021213X0*%
G04 #@! TD*
G04 #@! TA.AperFunction,SMDPad,CuDef*
%ADD21RoundRect,0.250000X0.159099X-0.512652X0.512652X-0.159099X-0.159099X0.512652X-0.512652X0.159099X0*%
G04 #@! TD*
G04 #@! TA.AperFunction,SMDPad,CuDef*
%ADD22RoundRect,0.150000X-0.309359X-0.521491X0.521491X0.309359X0.309359X0.521491X-0.521491X-0.309359X0*%
G04 #@! TD*
G04 #@! TA.AperFunction,SMDPad,CuDef*
%ADD23RoundRect,0.087500X0.194454X-0.070711X-0.070711X0.194454X-0.194454X0.070711X0.070711X-0.194454X0*%
G04 #@! TD*
G04 #@! TA.AperFunction,SMDPad,CuDef*
%ADD24RoundRect,0.175000X0.565685X0.318198X0.318198X0.565685X-0.565685X-0.318198X-0.318198X-0.565685X0*%
G04 #@! TD*
G04 #@! TA.AperFunction,SMDPad,CuDef*
%ADD25RotRect,1.300000X1.700000X135.000000*%
G04 #@! TD*
G04 #@! TA.AperFunction,SMDPad,CuDef*
%ADD26RotRect,0.650000X1.200000X45.000000*%
G04 #@! TD*
G04 #@! TA.AperFunction,SMDPad,CuDef*
%ADD27RotRect,0.650000X1.200000X135.000000*%
G04 #@! TD*
G04 #@! TA.AperFunction,SMDPad,CuDef*
%ADD28RotRect,0.800000X0.800000X315.000000*%
G04 #@! TD*
G04 #@! TA.AperFunction,SMDPad,CuDef*
%ADD29RoundRect,0.300000X-0.282843X0.707107X-0.707107X0.282843X0.282843X-0.707107X0.707107X-0.282843X0*%
G04 #@! TD*
G04 #@! TA.AperFunction,ViaPad*
%ADD30C,0.800000*%
G04 #@! TD*
G04 #@! TA.AperFunction,Conductor*
%ADD31C,0.250000*%
G04 #@! TD*
G04 #@! TA.AperFunction,Conductor*
%ADD32C,0.500000*%
G04 #@! TD*
G04 APERTURE END LIST*
D10*
X100303060Y-63946938D03*
X100981882Y-63268116D03*
D11*
X92800657Y-63522674D03*
X92121835Y-62843852D03*
D12*
X101201086Y-64887390D03*
X101922334Y-64166142D03*
D13*
X97453420Y-68034016D03*
X98174668Y-68755264D03*
D14*
X91549078Y-64816679D03*
X90827830Y-64095431D03*
D13*
X95979102Y-66559698D03*
X96700350Y-67280946D03*
X93574939Y-61468530D03*
X94296187Y-62189778D03*
D15*
X112336756Y-64080027D03*
X114132807Y-62283976D03*
X110540705Y-65876078D03*
X108744653Y-67672130D03*
X106948602Y-69468181D03*
D16*
X98882332Y-56882385D03*
X98161084Y-57603633D03*
D11*
X103265837Y-68472422D03*
X102587015Y-67793600D03*
D17*
X101068503Y-71737488D03*
X99725000Y-70393985D03*
X99070926Y-72391562D03*
D18*
X100582368Y-59424991D03*
X102350134Y-61192757D03*
D19*
X96020317Y-59744400D03*
X97134011Y-58630706D03*
D10*
X99030268Y-62674146D03*
X99709090Y-61995324D03*
D20*
X98719141Y-61005374D03*
X98040319Y-61684196D03*
D21*
X94819447Y-63915118D03*
X96162949Y-62571616D03*
D14*
X106246292Y-65796022D03*
X105525044Y-65074774D03*
D12*
X105433120Y-68744657D03*
X106154368Y-68023409D03*
D22*
X94121179Y-69421713D03*
X95464682Y-70765216D03*
X96118756Y-68767639D03*
D23*
X104559842Y-67786528D03*
X105266949Y-67079421D03*
X103958802Y-65771274D03*
X103251695Y-66478381D03*
D24*
X104259322Y-66778901D03*
D25*
X99875261Y-66778901D03*
X97400387Y-64304027D03*
D15*
X115928858Y-60487925D03*
D26*
X109499691Y-44541100D03*
X108601665Y-45439125D03*
X107703640Y-46337151D03*
X106805614Y-47235177D03*
X105907589Y-48133202D03*
X105009563Y-49031228D03*
X104111537Y-49929253D03*
X103213512Y-50827279D03*
X102315486Y-51725305D03*
X101417461Y-52623330D03*
D27*
X101014410Y-55499841D03*
X101912435Y-56397866D03*
X102810461Y-57295892D03*
X103708487Y-58193918D03*
X104606512Y-59091943D03*
X105504538Y-59989969D03*
X106402563Y-60887994D03*
X107300589Y-61786020D03*
D26*
X110212455Y-61418324D03*
X111110480Y-60520299D03*
X112008506Y-59622273D03*
X112906532Y-58724248D03*
X113804557Y-57826222D03*
X114702583Y-56928196D03*
X115600608Y-56030171D03*
X116498634Y-55132145D03*
X117396660Y-54234120D03*
X118294685Y-53336094D03*
D15*
X108148410Y-43656509D03*
D14*
X110711671Y-41835709D03*
X109990423Y-41114461D03*
D28*
X108678740Y-41641255D03*
X109739400Y-42701915D03*
D29*
X121361258Y-55263110D03*
X118108566Y-58515802D03*
D22*
X91504884Y-66805417D03*
X92848387Y-68148920D03*
X93502461Y-66151343D03*
D30*
X97559132Y-61034012D03*
X91884954Y-69253775D03*
X108784806Y-66071794D03*
X110761046Y-46311910D03*
X101890161Y-68510959D03*
X94986174Y-58657223D03*
X102350134Y-63314078D03*
X94491199Y-71738698D03*
X105079770Y-47184061D03*
X93511299Y-64374738D03*
X102350134Y-72506466D03*
X107183766Y-49288058D03*
X117083261Y-59541106D03*
X104620054Y-61026765D03*
X89152543Y-68733494D03*
X101508881Y-49270026D03*
X105592776Y-51957102D03*
X94526555Y-76935933D03*
X114078057Y-64314077D03*
X115875541Y-59187553D03*
X101721082Y-50348718D03*
X110835416Y-47757729D03*
X99344930Y-50409379D03*
X107006989Y-44868640D03*
D31*
X110693994Y-41818032D02*
X111779960Y-42903998D01*
X94491199Y-71738698D02*
X95420488Y-70809410D01*
X111779960Y-45292996D02*
X110761046Y-46311910D01*
X97559132Y-61034012D02*
X97559132Y-61203011D01*
X94986174Y-58710256D02*
X96020318Y-59744399D01*
X99026732Y-62677682D02*
X99499317Y-62677682D01*
X100981883Y-63268116D02*
X101879908Y-64166142D01*
X94359828Y-64374738D02*
X93511299Y-64374738D01*
X105079770Y-47305384D02*
X105978299Y-48203913D01*
X102587015Y-67143061D02*
X102587015Y-67793599D01*
X111779960Y-42903998D02*
X111779960Y-45292996D01*
X100688433Y-62967596D02*
X100985418Y-63264580D01*
X105575248Y-59919258D02*
X104620054Y-60874453D01*
X101922335Y-64166142D02*
X102350134Y-63738342D01*
X118108566Y-58515801D02*
X117083261Y-59541106D01*
X101837482Y-72506466D02*
X102350134Y-72506466D01*
X102350134Y-63738342D02*
X102350134Y-63314078D01*
X104620054Y-60874453D02*
X104620054Y-61026765D01*
X97559132Y-61203011D02*
X98040318Y-61684197D01*
X94819447Y-63915119D02*
X94359828Y-64374738D01*
X99499317Y-62677682D02*
X99789231Y-62967596D01*
X107183766Y-49288058D02*
X107062444Y-49288058D01*
X94986174Y-58657223D02*
X94986174Y-58710256D01*
X101890161Y-68490453D02*
X101890161Y-68510959D01*
X103251695Y-66478381D02*
X102587015Y-67143061D01*
X91884954Y-69183064D02*
X91884954Y-69253775D01*
X101068503Y-71737487D02*
X101837482Y-72506466D01*
X105079770Y-47184061D02*
X105079770Y-47305384D01*
X102587015Y-67793599D02*
X101890161Y-68490453D01*
X99789231Y-62967596D02*
X100688433Y-62967596D01*
X92839548Y-68228470D02*
X91884954Y-69183064D01*
X99030268Y-62674146D02*
X98040318Y-61684197D01*
X108784806Y-67631977D02*
X108784806Y-66071794D01*
X107062444Y-49288058D02*
X106239221Y-48464835D01*
X98036783Y-67486008D02*
X98036783Y-67364685D01*
X97488775Y-68034016D02*
X98036783Y-67486008D01*
X99228815Y-68556717D02*
X98168155Y-67496057D01*
X89152543Y-68733494D02*
X93218407Y-72799358D01*
X97471097Y-68051693D02*
X98036783Y-67486008D01*
X99228815Y-69263824D02*
X99228815Y-68556717D01*
X98168155Y-67496057D02*
X97991378Y-67496057D01*
X94278510Y-62172100D02*
X94762878Y-61687732D01*
X96154111Y-62580455D02*
X97400387Y-63826730D01*
X98036783Y-67364685D02*
X97400387Y-66728289D01*
X95693281Y-72799358D02*
X99228815Y-69263824D01*
X97400387Y-66728289D02*
X97400387Y-64304027D01*
X97991378Y-67496057D02*
X97453420Y-68034016D01*
X93218407Y-72799358D02*
X95693281Y-72799358D01*
X95261389Y-61687732D02*
X96154111Y-62580455D01*
X97453420Y-68034016D02*
X97488775Y-68034016D01*
X94762878Y-61687732D02*
X95261389Y-61687732D01*
X93574939Y-61468529D02*
X92864854Y-60758444D01*
X105592776Y-51957102D02*
X103901085Y-53648792D01*
X92864854Y-60758444D02*
X92864854Y-58303669D01*
X101724502Y-54711967D02*
X101724502Y-54815518D01*
X103411501Y-56694851D02*
X102881171Y-57225181D01*
X103411501Y-56502518D02*
X103411501Y-56694851D01*
X100466252Y-50702271D02*
X100466252Y-50312655D01*
X103901085Y-53648792D02*
X102787676Y-53648792D01*
X92864854Y-58303669D02*
X100466252Y-50702271D01*
X102787676Y-53648792D02*
X101724502Y-54711967D01*
X92121835Y-62843852D02*
X93497157Y-61468529D01*
X101724502Y-54815518D02*
X103411501Y-56502518D01*
X100466252Y-50312655D02*
X101508881Y-49270026D01*
X90827829Y-64095431D02*
X92079408Y-62843852D01*
X91515024Y-64815378D02*
X92804193Y-63526210D01*
X91515024Y-66833236D02*
X91515024Y-64815378D01*
X97711514Y-69183064D02*
X97860006Y-69034572D01*
X96162950Y-68723445D02*
X96622569Y-69183064D01*
X96622569Y-69183064D02*
X97711514Y-69183064D01*
X97860006Y-69034572D02*
X98156991Y-68737587D01*
X94076985Y-69465907D02*
X94571960Y-68970932D01*
X94571960Y-68970932D02*
X94571960Y-67419868D01*
X96197196Y-67276161D02*
X96210088Y-67263269D01*
X94715666Y-67276161D02*
X96197196Y-67276161D01*
X96210088Y-67263269D02*
X96682673Y-67263269D01*
X93582010Y-66142505D02*
X94715666Y-67276161D01*
X94571960Y-67419868D02*
X94715666Y-67276161D01*
D32*
X114078057Y-65021184D02*
X104708892Y-74390348D01*
X94526555Y-76935933D02*
X99026732Y-72435755D01*
X104708892Y-74390348D02*
X101069714Y-74390348D01*
X101069714Y-74390348D02*
X99070926Y-72391561D01*
X114078057Y-64314077D02*
X114078057Y-65021184D01*
D31*
X109124217Y-47757729D02*
X107774350Y-46407862D01*
X94102291Y-58126892D02*
X94102291Y-59187553D01*
X99875260Y-66778901D02*
X101218763Y-65435398D01*
X115875541Y-59187553D02*
X115875541Y-60434608D01*
X101721082Y-50348718D02*
X101721082Y-50508101D01*
X100299524Y-63950474D02*
X101218763Y-64869713D01*
X110835416Y-47757729D02*
X109124217Y-47757729D01*
X101721082Y-50508101D02*
X94102291Y-58126892D01*
X98861677Y-63946938D02*
X100303060Y-63946938D01*
X94102291Y-59187553D02*
X98861677Y-63946938D01*
X101218763Y-65435398D02*
X101218763Y-64869713D01*
X97134011Y-58630706D02*
X98161084Y-57603633D01*
X105239223Y-68938555D02*
X105239223Y-69263824D01*
X101996581Y-69741679D02*
X101996581Y-70031592D01*
X105433120Y-68744658D02*
X105239223Y-68938555D01*
X104708892Y-62015980D02*
X104583964Y-62015980D01*
D32*
X104117901Y-63667631D02*
X102004298Y-65781234D01*
X102004298Y-65781234D02*
X102004298Y-66841894D01*
D31*
X104583964Y-62015980D02*
X103701265Y-61133281D01*
X106123106Y-70147708D02*
X106269075Y-70147708D01*
D32*
X103163307Y-71198318D02*
X105218465Y-71198318D01*
D31*
X103265837Y-68472422D02*
X101996581Y-69741679D01*
X103873949Y-68472422D02*
X103265837Y-68472422D01*
X103701265Y-61133281D02*
X103701265Y-59997190D01*
X104117901Y-63667631D02*
X105525044Y-65074774D01*
D32*
X105218465Y-71198318D02*
X106269075Y-70147708D01*
X104708892Y-63076640D02*
X104117901Y-63667631D01*
D31*
X105274578Y-62015980D02*
X106473274Y-60817284D01*
X103701265Y-59997190D02*
X104471454Y-59227001D01*
X104559843Y-67786528D02*
X103873949Y-68472422D01*
D32*
X101031937Y-69087048D02*
X99725000Y-70393985D01*
X101996581Y-70031592D02*
X100582367Y-68617379D01*
X101996581Y-70031592D02*
X103163307Y-71198318D01*
D31*
X105239223Y-69263824D02*
X106123106Y-70147708D01*
D32*
X104708892Y-62015980D02*
X104708892Y-63076640D01*
X106269075Y-70147708D02*
X106948602Y-69468181D01*
X101031937Y-69066949D02*
X101031937Y-69087048D01*
D31*
X104708892Y-62015980D02*
X105274578Y-62015980D01*
D32*
X102004298Y-66841894D02*
X100582367Y-68263825D01*
X100582367Y-68617379D02*
X101031937Y-69066949D01*
X100582367Y-68263825D02*
X100582367Y-68617379D01*
D31*
X108421203Y-49818388D02*
X108421203Y-48850766D01*
X98882333Y-55468171D02*
X100466252Y-53884252D01*
X98882333Y-56882384D02*
X98882333Y-55468171D01*
X108421203Y-48850766D02*
X106876325Y-47305887D01*
X103460632Y-52657639D02*
X104885669Y-51232601D01*
X101526912Y-53884252D02*
X102753525Y-52657639D01*
X104885669Y-51232601D02*
X107006989Y-51232601D01*
X107006989Y-51232601D02*
X108421203Y-49818388D01*
X100466252Y-53884252D02*
X101526912Y-53884252D01*
X102753525Y-52657639D02*
X103460632Y-52657639D01*
X89975765Y-67910272D02*
X91666176Y-67910272D01*
X92536729Y-66688215D02*
X92505970Y-66657455D01*
X92505970Y-66263951D02*
X93640374Y-65129547D01*
X92505970Y-66657455D02*
X92505970Y-66263951D01*
X87129445Y-65063951D02*
X89975765Y-67910272D01*
X107006989Y-44868640D02*
X108031180Y-44868640D01*
X91666176Y-67910272D02*
X92536729Y-67039719D01*
X93640374Y-65129547D02*
X94548951Y-65129547D01*
X92536729Y-67039719D02*
X92536729Y-66688215D01*
X87129445Y-62978418D02*
X87129445Y-65063951D01*
X94548951Y-65129547D02*
X95979102Y-66559698D01*
X99168154Y-50939709D02*
X87129445Y-62978418D01*
X99168154Y-50586156D02*
X99168154Y-50939709D01*
X99344930Y-50409379D02*
X99168154Y-50586156D01*
X108031180Y-44868640D02*
X108586815Y-45424276D01*
X116209427Y-56638990D02*
X115674854Y-56104417D01*
X114963043Y-59186450D02*
X114963043Y-58479343D01*
X112336756Y-61812737D02*
X114963043Y-59186450D01*
X116209427Y-57232960D02*
X116209427Y-56638990D01*
X112336756Y-64080027D02*
X112336756Y-61812737D01*
X114963043Y-58479343D02*
X116209427Y-57232960D01*
X118674251Y-56182349D02*
X119971002Y-57479100D01*
X116427923Y-55061435D02*
X117548837Y-56182349D01*
X116779909Y-62283976D02*
X114132807Y-62283976D01*
X117548837Y-56182349D02*
X118674251Y-56182349D01*
X119971002Y-59092883D02*
X116779909Y-62283976D01*
X119971002Y-57479100D02*
X119971002Y-59092883D01*
X109315136Y-64650510D02*
X110540705Y-65876078D01*
X110141744Y-61347614D02*
X109315136Y-62174222D01*
X109315136Y-62174222D02*
X109315136Y-64650510D01*
X111603184Y-66011133D02*
X108704046Y-68910271D01*
X114256752Y-58832082D02*
X110552573Y-62536260D01*
X110552573Y-64324126D02*
X111603184Y-65374737D01*
X105266950Y-67079421D02*
X106154369Y-67966840D01*
X113878803Y-57900468D02*
X114256752Y-58278417D01*
X108704046Y-68910271D02*
X108087748Y-68910271D01*
X110552573Y-62536260D02*
X110552573Y-64324126D01*
X111603184Y-65374737D02*
X111603184Y-66011133D01*
X107200887Y-68023409D02*
X106154369Y-68023409D01*
X108087748Y-68910271D02*
X107200887Y-68023409D01*
X114256752Y-58278417D02*
X114256752Y-58832082D01*
X104757452Y-65282990D02*
X105270485Y-65796023D01*
X108431252Y-63611063D02*
X106246292Y-65796023D01*
X114123462Y-56349076D02*
X113557777Y-56349076D01*
X114631872Y-56857486D02*
X114123462Y-56349076D01*
X108431252Y-61475600D02*
X108431252Y-63611063D01*
X105270485Y-65796023D02*
X106246292Y-65796023D01*
X104757452Y-65282990D02*
X104447086Y-65282990D01*
X104447086Y-65282990D02*
X103958802Y-65771274D01*
X113557777Y-56349076D02*
X108431252Y-61475600D01*
X98722676Y-61001839D02*
X100299524Y-59424991D01*
X100112698Y-58389636D02*
X100865210Y-59142148D01*
X100112698Y-56401552D02*
X100112698Y-58389636D01*
X100865210Y-55649040D02*
X100112698Y-56401552D01*
X101350135Y-57950116D02*
X102632977Y-59232957D01*
X99712626Y-61991788D02*
X100843997Y-61991788D01*
X100843997Y-61991788D02*
X100858139Y-62005930D01*
X101350135Y-56960166D02*
X101350135Y-57950116D01*
X102632977Y-59232957D02*
X102632977Y-60909915D01*
X100858139Y-62005930D02*
X101536961Y-62005930D01*
X101859402Y-56450899D02*
X101350135Y-56960166D01*
X101536961Y-62005930D02*
X102350134Y-61192758D01*
X109704045Y-42666560D02*
X109704045Y-41655182D01*
X103269373Y-49087089D02*
X103269373Y-47969154D01*
X108996938Y-42807981D02*
X108148410Y-43656509D01*
X104182248Y-49999964D02*
X103269373Y-49087089D01*
X106105213Y-44745112D02*
X107130288Y-43720037D01*
X103269373Y-47969154D02*
X106105213Y-45133314D01*
X109704045Y-41655182D02*
X110012030Y-41347197D01*
X109633334Y-42807981D02*
X108996938Y-42807981D01*
X107130288Y-43720037D02*
X107937251Y-43720037D01*
X106105213Y-45133314D02*
X106105213Y-44745112D01*
X102562266Y-50176034D02*
X103284222Y-50897990D01*
X102562266Y-47474886D02*
X102562266Y-50176034D01*
X108537318Y-41499834D02*
X102562266Y-47474886D01*
X121361257Y-55263110D02*
X120221701Y-55263110D01*
X120221701Y-55263110D02*
X118294685Y-53336094D01*
M02*
