G04 #@! TF.GenerationSoftware,KiCad,Pcbnew,(6.0.9)*
G04 #@! TF.CreationDate,2022-11-30T18:40:26+01:00*
G04 #@! TF.ProjectId,parasite - 45deg,70617261-7369-4746-9520-2d2034356465,1.2.0*
G04 #@! TF.SameCoordinates,Original*
G04 #@! TF.FileFunction,Copper,L3,Inr*
G04 #@! TF.FilePolarity,Positive*
%FSLAX46Y46*%
G04 Gerber Fmt 4.6, Leading zero omitted, Abs format (unit mm)*
G04 Created by KiCad (PCBNEW (6.0.9)) date 2022-11-30 18:40:26*
%MOMM*%
%LPD*%
G01*
G04 APERTURE LIST*
G04 #@! TA.AperFunction,ViaPad*
%ADD10C,0.800000*%
G04 #@! TD*
G04 #@! TA.AperFunction,Conductor*
%ADD11C,0.250000*%
G04 #@! TD*
G04 #@! TA.AperFunction,Conductor*
%ADD12C,10.000000*%
G04 #@! TD*
G04 APERTURE END LIST*
D10*
X97559132Y-61034012D03*
X91884954Y-69253775D03*
X108784806Y-66071794D03*
X110761046Y-46311910D03*
X101890161Y-68510959D03*
X94986174Y-58657223D03*
X102350134Y-63314078D03*
X94491199Y-71738698D03*
X105079770Y-47184061D03*
X93511299Y-64374738D03*
X102350134Y-72506466D03*
X107183766Y-49288058D03*
X117083261Y-59541106D03*
X104620054Y-61026765D03*
X89152543Y-68733494D03*
X101508881Y-49270026D03*
X105592776Y-51957102D03*
X94526555Y-76935933D03*
X114078057Y-64314077D03*
X115875541Y-59187553D03*
X101721082Y-50348718D03*
X110835416Y-47757729D03*
X99344930Y-50409379D03*
X107006989Y-44868640D03*
D11*
X66525126Y-97724872D02*
X64519921Y-99730077D01*
X66525126Y-91360911D02*
X66525126Y-97724872D01*
D12*
X65934135Y-98315864D02*
X37649864Y-126600135D01*
D11*
X89152543Y-68733494D02*
X66525126Y-91360911D01*
G04 #@! TA.AperFunction,Conductor*
G36*
X122370886Y-56634481D02*
G01*
X122365821Y-56705297D01*
X122336861Y-56750359D01*
X115111261Y-63975960D01*
X115048948Y-64009985D01*
X114978132Y-64004920D01*
X114921296Y-63962373D01*
X114904534Y-63932019D01*
X114891995Y-63899354D01*
X114839989Y-63819272D01*
X114791579Y-63744726D01*
X114791575Y-63744722D01*
X114787983Y-63739190D01*
X114652944Y-63604151D01*
X114647412Y-63600559D01*
X114647408Y-63600555D01*
X114572862Y-63552145D01*
X114492780Y-63500139D01*
X114486617Y-63497774D01*
X114486617Y-63497773D01*
X114320652Y-63434065D01*
X114320650Y-63434064D01*
X114314490Y-63431699D01*
X114125867Y-63401825D01*
X113935154Y-63411820D01*
X113750687Y-63461247D01*
X113580527Y-63547948D01*
X113432112Y-63668132D01*
X113311928Y-63816547D01*
X113225228Y-63986707D01*
X113175800Y-64171173D01*
X113165805Y-64361886D01*
X113195680Y-64550509D01*
X113198045Y-64556670D01*
X113198045Y-64556672D01*
X113243268Y-64674481D01*
X113264119Y-64728799D01*
X113316126Y-64808882D01*
X113364536Y-64883428D01*
X113364539Y-64883431D01*
X113368131Y-64888964D01*
X113503170Y-65024003D01*
X113508703Y-65027595D01*
X113508706Y-65027598D01*
X113583252Y-65076008D01*
X113663335Y-65128015D01*
X113696000Y-65140554D01*
X113752427Y-65183639D01*
X113776604Y-65250392D01*
X113760852Y-65319619D01*
X113739940Y-65347280D01*
X48347669Y-130739551D01*
X48332153Y-130752740D01*
X48314591Y-130765373D01*
X48298818Y-130785583D01*
X48285952Y-130799711D01*
X47738971Y-131315696D01*
X47734893Y-131319379D01*
X47139085Y-131834218D01*
X47134848Y-131837720D01*
X46517153Y-132326084D01*
X46512768Y-132329398D01*
X45874356Y-132790365D01*
X45869831Y-132793484D01*
X45214669Y-133224363D01*
X45211922Y-133226169D01*
X45207265Y-133229088D01*
X44531129Y-133632659D01*
X44526349Y-133635373D01*
X43833236Y-134009083D01*
X43828342Y-134011585D01*
X43119606Y-134354705D01*
X43114608Y-134356992D01*
X42392106Y-134668650D01*
X42391568Y-134668882D01*
X42386489Y-134670943D01*
X41652984Y-134950071D01*
X41650532Y-134951004D01*
X41645368Y-134952841D01*
X41099028Y-135133889D01*
X40897875Y-135200547D01*
X40892621Y-135202162D01*
X40135093Y-135417016D01*
X40129774Y-135418401D01*
X39363552Y-135600024D01*
X39358181Y-135601174D01*
X38619321Y-135742596D01*
X38584786Y-135749206D01*
X38579380Y-135750118D01*
X38346374Y-135784260D01*
X37800275Y-135864279D01*
X37794825Y-135864957D01*
X37011407Y-135945037D01*
X37005967Y-135945472D01*
X36264588Y-135988701D01*
X36262952Y-135988795D01*
X36240779Y-135988132D01*
X36232134Y-135987107D01*
X36223213Y-135986050D01*
X36203345Y-135989388D01*
X36182468Y-135991129D01*
X29213950Y-135991129D01*
X29194572Y-135989630D01*
X29170859Y-135985938D01*
X29161958Y-135987102D01*
X29159844Y-135987378D01*
X29131157Y-135987834D01*
X29000237Y-135974940D01*
X28976014Y-135970123D01*
X28829853Y-135925786D01*
X28807042Y-135916337D01*
X28672335Y-135844335D01*
X28651802Y-135830614D01*
X28533738Y-135733721D01*
X28516278Y-135716261D01*
X28419384Y-135598197D01*
X28405664Y-135577664D01*
X28333661Y-135442956D01*
X28324212Y-135420141D01*
X28279876Y-135273987D01*
X28275058Y-135249764D01*
X28275058Y-135249761D01*
X28262829Y-135125601D01*
X28263282Y-135109548D01*
X28262571Y-135109539D01*
X28262681Y-135100557D01*
X28264061Y-135091692D01*
X28262898Y-135082797D01*
X28262898Y-135082791D01*
X28259730Y-135058572D01*
X28258667Y-135042849D01*
X28258634Y-135035812D01*
X28229245Y-129035201D01*
X28224369Y-128039579D01*
X28226656Y-128015057D01*
X28226988Y-128013339D01*
X28228691Y-128004527D01*
X28227852Y-127995590D01*
X28227852Y-127995586D01*
X28226301Y-127979059D01*
X28225964Y-127959922D01*
X28226414Y-127952257D01*
X28269036Y-127223920D01*
X28269874Y-127209604D01*
X28270321Y-127204071D01*
X28350860Y-126421165D01*
X28351549Y-126415658D01*
X28466493Y-125637061D01*
X28467424Y-125631589D01*
X28616548Y-124858799D01*
X28617719Y-124853374D01*
X28659961Y-124676698D01*
X28800733Y-124087912D01*
X28802141Y-124082548D01*
X28838156Y-123956707D01*
X29018693Y-123325882D01*
X29020334Y-123320591D01*
X29068337Y-123177085D01*
X29270006Y-122574181D01*
X29271879Y-122568966D01*
X29554171Y-121834309D01*
X29556275Y-121829173D01*
X29870656Y-121107645D01*
X29872984Y-121102607D01*
X30218835Y-120395633D01*
X30221384Y-120390701D01*
X30466205Y-119941520D01*
X30598065Y-119699594D01*
X30600804Y-119694823D01*
X31004394Y-119026216D01*
X31007532Y-119021016D01*
X31010496Y-119016342D01*
X31445943Y-118361951D01*
X31446505Y-118361106D01*
X31449680Y-118356555D01*
X31914125Y-117721158D01*
X31917498Y-117716750D01*
X32128765Y-117452944D01*
X32409471Y-117102431D01*
X32413022Y-117098192D01*
X32931590Y-116506118D01*
X32935338Y-116502025D01*
X33449616Y-115964574D01*
X33466324Y-115949943D01*
X33473366Y-115944799D01*
X33473371Y-115944794D01*
X33480618Y-115939500D01*
X33489585Y-115927836D01*
X33500015Y-115914266D01*
X33510816Y-115901961D01*
X81112242Y-68300535D01*
X82228331Y-69416624D01*
X82051971Y-69630184D01*
X82049603Y-69634087D01*
X82049600Y-69634092D01*
X81910657Y-69863063D01*
X81908289Y-69866966D01*
X81800292Y-70122010D01*
X81730243Y-70389972D01*
X81699610Y-70665240D01*
X81709035Y-70942047D01*
X81758319Y-71214593D01*
X81803974Y-71350649D01*
X81844979Y-71472843D01*
X81844980Y-71472846D01*
X81846431Y-71477171D01*
X81848494Y-71481245D01*
X81848493Y-71481244D01*
X81969465Y-71720211D01*
X81969468Y-71720216D01*
X81971525Y-71724279D01*
X81974149Y-71728006D01*
X81974149Y-71728007D01*
X82128770Y-71947602D01*
X82128775Y-71947608D01*
X82130980Y-71950739D01*
X82133558Y-71953588D01*
X82188727Y-72014538D01*
X82188733Y-72014544D01*
X82189783Y-72015704D01*
X82312040Y-72137962D01*
X82313761Y-72139449D01*
X82313769Y-72139457D01*
X82404138Y-72217599D01*
X82468186Y-72272981D01*
X82617616Y-72368362D01*
X82697798Y-72419542D01*
X82697801Y-72419544D01*
X82701648Y-72421999D01*
X82869948Y-72497813D01*
X82950012Y-72533879D01*
X82950015Y-72533881D01*
X82954175Y-72535754D01*
X83220480Y-72611865D01*
X83375376Y-72632670D01*
X83440226Y-72661561D01*
X83479163Y-72720929D01*
X83479822Y-72791921D01*
X83447697Y-72846643D01*
X65804017Y-90490323D01*
X65795599Y-90497430D01*
X65795788Y-90497648D01*
X65791251Y-90501564D01*
X65786356Y-90505037D01*
X65782206Y-90509372D01*
X65721245Y-90573053D01*
X65719322Y-90575018D01*
X65691331Y-90603009D01*
X65686510Y-90608849D01*
X65680371Y-90615751D01*
X65637842Y-90660176D01*
X65634590Y-90665213D01*
X65634590Y-90665214D01*
X65619334Y-90688842D01*
X65610636Y-90700727D01*
X65588905Y-90727042D01*
X65586033Y-90732298D01*
X65586028Y-90732306D01*
X65559415Y-90781016D01*
X65554695Y-90788949D01*
X65521344Y-90840601D01*
X65519100Y-90846170D01*
X65508590Y-90872249D01*
X65502304Y-90885547D01*
X65485933Y-90915512D01*
X65484102Y-90921232D01*
X65467187Y-90974076D01*
X65464055Y-90982755D01*
X65441065Y-91039798D01*
X65439917Y-91045682D01*
X65439915Y-91045684D01*
X65434523Y-91073294D01*
X65430862Y-91087555D01*
X65420459Y-91120055D01*
X65419743Y-91126013D01*
X65413123Y-91181117D01*
X65411686Y-91190235D01*
X65400772Y-91246126D01*
X65400771Y-91246132D01*
X65399902Y-91250582D01*
X65399626Y-91256225D01*
X65399626Y-91285932D01*
X65398728Y-91300960D01*
X65394844Y-91333288D01*
X65395267Y-91339271D01*
X65395267Y-91339272D01*
X65399312Y-91396392D01*
X65399626Y-91405292D01*
X65399626Y-92224171D01*
X65379625Y-92292292D01*
X65325969Y-92338785D01*
X65285265Y-92349632D01*
X65142396Y-92362886D01*
X65142370Y-92362889D01*
X65139869Y-92363121D01*
X65137392Y-92363554D01*
X65137384Y-92363555D01*
X64758800Y-92429628D01*
X64665025Y-92445994D01*
X64198355Y-92566683D01*
X64195967Y-92567510D01*
X64195959Y-92567512D01*
X63745263Y-92723579D01*
X63745251Y-92723584D01*
X63742868Y-92724410D01*
X63301498Y-92918158D01*
X62877088Y-93146679D01*
X62874983Y-93148040D01*
X62874975Y-93148046D01*
X62822579Y-93181942D01*
X62472372Y-93408501D01*
X62089957Y-93701938D01*
X62088090Y-93703626D01*
X62088084Y-93703630D01*
X62043406Y-93744001D01*
X61800781Y-93963229D01*
X33318876Y-122445134D01*
X33076447Y-122707851D01*
X32779022Y-123087172D01*
X32777635Y-123089268D01*
X32777627Y-123089278D01*
X32742700Y-123142049D01*
X32512975Y-123489124D01*
X32280022Y-123911119D01*
X32081663Y-124350436D01*
X31919175Y-124804245D01*
X31918523Y-124806661D01*
X31918519Y-124806675D01*
X31850388Y-125059184D01*
X31793607Y-125269626D01*
X31705764Y-125743577D01*
X31656216Y-126223046D01*
X31645280Y-126704946D01*
X31645425Y-126707457D01*
X31645425Y-126707465D01*
X31659290Y-126947916D01*
X31673027Y-127186169D01*
X31739279Y-127663617D01*
X31739823Y-127666072D01*
X31739824Y-127666077D01*
X31843062Y-128131754D01*
X31843064Y-128131761D01*
X31843608Y-128134214D01*
X31985342Y-128594928D01*
X32163569Y-129042791D01*
X32377139Y-129474918D01*
X32378441Y-129477092D01*
X32378441Y-129477094D01*
X32623378Y-129886354D01*
X32623380Y-129886358D01*
X32624677Y-129888524D01*
X32626146Y-129890583D01*
X32626147Y-129890585D01*
X32714686Y-130014712D01*
X32904590Y-130280947D01*
X33215072Y-130649657D01*
X33395923Y-130832412D01*
X33552343Y-130990479D01*
X33552347Y-130990484D01*
X33554124Y-130992278D01*
X33668259Y-131090450D01*
X33917634Y-131304946D01*
X33917640Y-131304951D01*
X33919562Y-131306604D01*
X34309032Y-131590610D01*
X34720023Y-131842466D01*
X34722266Y-131843604D01*
X34722275Y-131843609D01*
X35147640Y-132059409D01*
X35147645Y-132059411D01*
X35149890Y-132060551D01*
X35595862Y-132243457D01*
X36055067Y-132390008D01*
X36475216Y-132487780D01*
X36522080Y-132498686D01*
X36522087Y-132498687D01*
X36524546Y-132499259D01*
X37001273Y-132570507D01*
X37311231Y-132591638D01*
X37479661Y-132603120D01*
X37482180Y-132603292D01*
X37964167Y-132597403D01*
X38444129Y-132552877D01*
X38504525Y-132542337D01*
X38916490Y-132470438D01*
X38918974Y-132470004D01*
X39115225Y-132419250D01*
X39383190Y-132349950D01*
X39383199Y-132349947D01*
X39385643Y-132349315D01*
X39441736Y-132329892D01*
X39838735Y-132192419D01*
X39838747Y-132192414D01*
X39841131Y-132191589D01*
X40263441Y-132006207D01*
X40280176Y-131998862D01*
X40280185Y-131998857D01*
X40282501Y-131997841D01*
X40706910Y-131769319D01*
X40759287Y-131735436D01*
X41109514Y-131508864D01*
X41109522Y-131508859D01*
X41111627Y-131507497D01*
X41494041Y-131214060D01*
X41538723Y-131173687D01*
X41782038Y-130953836D01*
X41782050Y-130953824D01*
X41783217Y-130952769D01*
X70265123Y-102470864D01*
X70507552Y-102208147D01*
X70804977Y-101828826D01*
X70806364Y-101826731D01*
X70806371Y-101826720D01*
X71069624Y-101428987D01*
X71071023Y-101426874D01*
X71303977Y-101004880D01*
X71502336Y-100565563D01*
X71664823Y-100111753D01*
X71665475Y-100109337D01*
X71665479Y-100109323D01*
X71733610Y-99856814D01*
X71790392Y-99646373D01*
X71878234Y-99172422D01*
X71927783Y-98692952D01*
X71938718Y-98211053D01*
X71922129Y-97923329D01*
X71911117Y-97732353D01*
X71911116Y-97732348D01*
X71910971Y-97729830D01*
X71904476Y-97683026D01*
X71845065Y-97254872D01*
X71845065Y-97254870D01*
X71844720Y-97252381D01*
X71832186Y-97195846D01*
X71740937Y-96784245D01*
X71740935Y-96784237D01*
X71740391Y-96781784D01*
X71598656Y-96321071D01*
X71420430Y-95873208D01*
X71206860Y-95441081D01*
X71168857Y-95377582D01*
X70960620Y-95029644D01*
X70960618Y-95029641D01*
X70959321Y-95027474D01*
X70957853Y-95025416D01*
X70957851Y-95025413D01*
X70869312Y-94901287D01*
X70679409Y-94635051D01*
X70368927Y-94266341D01*
X70188075Y-94083586D01*
X70031655Y-93925519D01*
X70031651Y-93925515D01*
X70029875Y-93923720D01*
X69915740Y-93825549D01*
X69666365Y-93611052D01*
X69666358Y-93611047D01*
X69664436Y-93609394D01*
X69274967Y-93325388D01*
X68863975Y-93073532D01*
X68861733Y-93072395D01*
X68861724Y-93072390D01*
X68436358Y-92856589D01*
X68436353Y-92856587D01*
X68434108Y-92855448D01*
X67988137Y-92672541D01*
X67765083Y-92601356D01*
X67738318Y-92592814D01*
X67679504Y-92553048D01*
X67651524Y-92487797D01*
X67650627Y-92472779D01*
X67650627Y-91879300D01*
X67670628Y-91811178D01*
X67687531Y-91790204D01*
X86144721Y-73333014D01*
X92127826Y-79316119D01*
X91951466Y-79529679D01*
X91949098Y-79533581D01*
X91949095Y-79533586D01*
X91810152Y-79762558D01*
X91807784Y-79766461D01*
X91699787Y-80021505D01*
X91629738Y-80289467D01*
X91599105Y-80564735D01*
X91608529Y-80841542D01*
X91657814Y-81114088D01*
X91703469Y-81250144D01*
X91744474Y-81372338D01*
X91744475Y-81372341D01*
X91745926Y-81376666D01*
X91747989Y-81380740D01*
X91747988Y-81380739D01*
X91868960Y-81619706D01*
X91868963Y-81619711D01*
X91871020Y-81623774D01*
X91873644Y-81627501D01*
X91873644Y-81627501D01*
X92028265Y-81847097D01*
X92028270Y-81847103D01*
X92030475Y-81850234D01*
X92033053Y-81853083D01*
X92088222Y-81914033D01*
X92088228Y-81914039D01*
X92089278Y-81915199D01*
X92211535Y-82037457D01*
X92213256Y-82038944D01*
X92213264Y-82038952D01*
X92303633Y-82117094D01*
X92367681Y-82172476D01*
X92517111Y-82267857D01*
X92597292Y-82319037D01*
X92597296Y-82319039D01*
X92601143Y-82321494D01*
X92769443Y-82397308D01*
X92849507Y-82433374D01*
X92849510Y-82433375D01*
X92853670Y-82435249D01*
X93119975Y-82511359D01*
X93394477Y-82548229D01*
X93671426Y-82545088D01*
X93945020Y-82501999D01*
X94209529Y-82419867D01*
X94459411Y-82300412D01*
X94689432Y-82146135D01*
X94826937Y-82021672D01*
X94891382Y-81963340D01*
X94891386Y-81963335D01*
X94894773Y-81960269D01*
X95071132Y-81746709D01*
X95170375Y-81583164D01*
X95212447Y-81513830D01*
X95214815Y-81509927D01*
X95322812Y-81254883D01*
X95392861Y-80986921D01*
X95423494Y-80711653D01*
X95414069Y-80434846D01*
X95364785Y-80162300D01*
X95300345Y-79970267D01*
X95278125Y-79904050D01*
X95278124Y-79904047D01*
X95276673Y-79899722D01*
X95257240Y-79861336D01*
X95153639Y-79656682D01*
X95153635Y-79656677D01*
X95151579Y-79652614D01*
X95148954Y-79648887D01*
X94994334Y-79429291D01*
X94994329Y-79429285D01*
X94992124Y-79426154D01*
X94984019Y-79417199D01*
X94934377Y-79362355D01*
X94934371Y-79362349D01*
X94933321Y-79361189D01*
X94811063Y-79238932D01*
X94809343Y-79237444D01*
X94809335Y-79237436D01*
X94718966Y-79159294D01*
X94654917Y-79103912D01*
X94538187Y-79029403D01*
X94425306Y-78957351D01*
X94425303Y-78957349D01*
X94421456Y-78954894D01*
X94295193Y-78898016D01*
X94173092Y-78843014D01*
X94173089Y-78843013D01*
X94168928Y-78841139D01*
X93902624Y-78765029D01*
X93628122Y-78728159D01*
X93351173Y-78731300D01*
X93077578Y-78774389D01*
X92813070Y-78856521D01*
X92563187Y-78975976D01*
X92333167Y-79130253D01*
X92329784Y-79133315D01*
X92329783Y-79133315D01*
X92192281Y-79257777D01*
X92127826Y-79316119D01*
X86144721Y-73333014D01*
X88534178Y-70943556D01*
X93880610Y-76289988D01*
X93760426Y-76438403D01*
X93673725Y-76608563D01*
X93624298Y-76793029D01*
X93614303Y-76983742D01*
X93644177Y-77172365D01*
X93646542Y-77178526D01*
X93646543Y-77178528D01*
X93710251Y-77344492D01*
X93712617Y-77350655D01*
X93764622Y-77430737D01*
X93813033Y-77505284D01*
X93813037Y-77505287D01*
X93816629Y-77510820D01*
X93951668Y-77645859D01*
X93957200Y-77649451D01*
X93957204Y-77649454D01*
X94031750Y-77697865D01*
X94111832Y-77749871D01*
X94117996Y-77752237D01*
X94283960Y-77815945D01*
X94283962Y-77815946D01*
X94290122Y-77818310D01*
X94478745Y-77848185D01*
X94669458Y-77838190D01*
X94853925Y-77788762D01*
X95024085Y-77702062D01*
X95172500Y-77581878D01*
X95292684Y-77433463D01*
X95379384Y-77263303D01*
X95428812Y-77078836D01*
X95438807Y-76888123D01*
X95408932Y-76699500D01*
X95406568Y-76693340D01*
X95406567Y-76693338D01*
X95342859Y-76527374D01*
X95342858Y-76527373D01*
X95340493Y-76521210D01*
X95288487Y-76441128D01*
X95240076Y-76366582D01*
X95240073Y-76366578D01*
X95236481Y-76361046D01*
X95101442Y-76226007D01*
X95095909Y-76222415D01*
X95095906Y-76222411D01*
X95021359Y-76174000D01*
X94941277Y-76121995D01*
X94935115Y-76119630D01*
X94935114Y-76119629D01*
X94769150Y-76055921D01*
X94769148Y-76055920D01*
X94762987Y-76053555D01*
X94574364Y-76023681D01*
X94383651Y-76033676D01*
X94199185Y-76083103D01*
X94029025Y-76169804D01*
X93880610Y-76289988D01*
X88534178Y-70943556D01*
X89330093Y-70147642D01*
X89398826Y-70112393D01*
X89487412Y-70097886D01*
X89492516Y-70097051D01*
X89710656Y-70023214D01*
X89804809Y-69972941D01*
X89909241Y-69917181D01*
X89909246Y-69917177D01*
X89913806Y-69914743D01*
X90096512Y-69774547D01*
X90146240Y-69727191D01*
X90295194Y-69551552D01*
X90413460Y-69353942D01*
X90497865Y-69139670D01*
X90546139Y-68914491D01*
X90547584Y-68883870D01*
X90556743Y-68689612D01*
X90556743Y-68689610D01*
X90556987Y-68684450D01*
X90556384Y-68679323D01*
X90556384Y-68679318D01*
X90530721Y-68460856D01*
X90530721Y-68460850D01*
X90530118Y-68455726D01*
X90528688Y-68450770D01*
X90528687Y-68450767D01*
X90467687Y-68239427D01*
X90467686Y-68239423D01*
X90466254Y-68234463D01*
X90464030Y-68229801D01*
X90464028Y-68229797D01*
X90369335Y-68031268D01*
X90369333Y-68031264D01*
X90367109Y-68026600D01*
X90364149Y-68022358D01*
X90364147Y-68022355D01*
X90308255Y-67942235D01*
X90235345Y-67837722D01*
X90174964Y-67775847D01*
X90078114Y-67676601D01*
X90078113Y-67676599D01*
X90074503Y-67672900D01*
X89888901Y-67536562D01*
X89683522Y-67432368D01*
X89463885Y-67363117D01*
X89235886Y-67330667D01*
X89005650Y-67335893D01*
X88779358Y-67378651D01*
X88774503Y-67380428D01*
X88774496Y-67380429D01*
X88748234Y-67390040D01*
X88563088Y-67457794D01*
X88362648Y-67571198D01*
X88183421Y-67715815D01*
X88179988Y-67719668D01*
X88179985Y-67719671D01*
X88117033Y-67790327D01*
X88030221Y-67887763D01*
X88027456Y-67892135D01*
X88027453Y-67892140D01*
X87974681Y-67975618D01*
X87907161Y-68082424D01*
X87905153Y-68087179D01*
X87905151Y-68087182D01*
X87866388Y-68178947D01*
X87817548Y-68294570D01*
X87816341Y-68299599D01*
X87816339Y-68299602D01*
X87768274Y-68499807D01*
X87734851Y-68559489D01*
X85722247Y-70572093D01*
X85659934Y-70606119D01*
X85589118Y-70601054D01*
X85532282Y-70558507D01*
X85509161Y-70505419D01*
X85479614Y-70342019D01*
X85465290Y-70262805D01*
X85400850Y-70070772D01*
X85378630Y-70004555D01*
X85378629Y-70004552D01*
X85377178Y-70000227D01*
X85357745Y-69961841D01*
X85254144Y-69757187D01*
X85254141Y-69757183D01*
X85252084Y-69753119D01*
X85249459Y-69749392D01*
X85094839Y-69529796D01*
X85094834Y-69529790D01*
X85092629Y-69526659D01*
X85084524Y-69517704D01*
X85034882Y-69462860D01*
X85034876Y-69462854D01*
X85033826Y-69461694D01*
X84911569Y-69339437D01*
X84909848Y-69337950D01*
X84909840Y-69337941D01*
X84819471Y-69259799D01*
X84755422Y-69204417D01*
X84638692Y-69129908D01*
X84525811Y-69057856D01*
X84525808Y-69057854D01*
X84521961Y-69055399D01*
X84395698Y-68998521D01*
X84273597Y-68943519D01*
X84273594Y-68943518D01*
X84269434Y-68941644D01*
X84003129Y-68865534D01*
X83728627Y-68828664D01*
X83451678Y-68831805D01*
X83178084Y-68874894D01*
X82913575Y-68957026D01*
X82663692Y-69076481D01*
X82433672Y-69230758D01*
X82430289Y-69233820D01*
X82430288Y-69233820D01*
X82292786Y-69358282D01*
X82228331Y-69416624D01*
X81112242Y-68300535D01*
X98444149Y-50968628D01*
X98506461Y-50934602D01*
X98577278Y-50939667D01*
X98631163Y-50978427D01*
X98631410Y-50978732D01*
X98635004Y-50984266D01*
X98770043Y-51119305D01*
X98775576Y-51122897D01*
X98775579Y-51122901D01*
X98850126Y-51171311D01*
X98930208Y-51223317D01*
X98936371Y-51225683D01*
X99102335Y-51289391D01*
X99102338Y-51289392D01*
X99108498Y-51291756D01*
X99297121Y-51321631D01*
X99487834Y-51311636D01*
X99672300Y-51262209D01*
X99842461Y-51175508D01*
X99990875Y-51055324D01*
X100111059Y-50906909D01*
X100197760Y-50736749D01*
X100247187Y-50552283D01*
X100257182Y-50361569D01*
X100227308Y-50172947D01*
X100224943Y-50166786D01*
X100224942Y-50166784D01*
X100161234Y-50000820D01*
X100161233Y-50000819D01*
X100158868Y-49994657D01*
X100106862Y-49914574D01*
X100058452Y-49840028D01*
X100058448Y-49840025D01*
X100054856Y-49834492D01*
X99919817Y-49699453D01*
X99914283Y-49695859D01*
X99913978Y-49695612D01*
X99873627Y-49637197D01*
X99871263Y-49566240D01*
X99904179Y-49508598D01*
X100393650Y-49019127D01*
X100455963Y-48985101D01*
X100526779Y-48990166D01*
X100583615Y-49032713D01*
X100608424Y-49099233D01*
X100607345Y-49124432D01*
X100606624Y-49127123D01*
X100596629Y-49317836D01*
X100615790Y-49438818D01*
X100623633Y-49488332D01*
X100626503Y-49506459D01*
X100628868Y-49512619D01*
X100628869Y-49512621D01*
X100692577Y-49678586D01*
X100694943Y-49684749D01*
X100746949Y-49764831D01*
X100795359Y-49839378D01*
X100795363Y-49839381D01*
X100798955Y-49844913D01*
X100840646Y-49886604D01*
X100874671Y-49948917D01*
X100869301Y-50019290D01*
X100868253Y-50021348D01*
X100818825Y-50205814D01*
X100808830Y-50396527D01*
X100838705Y-50585150D01*
X100841069Y-50591311D01*
X100841070Y-50591313D01*
X100904778Y-50757277D01*
X100907144Y-50763440D01*
X100959150Y-50843523D01*
X101007560Y-50918069D01*
X101007564Y-50918072D01*
X101011156Y-50923605D01*
X101146195Y-51058644D01*
X101151727Y-51062236D01*
X101151731Y-51062239D01*
X101226277Y-51110649D01*
X101306360Y-51162656D01*
X101312523Y-51165022D01*
X101478487Y-51228730D01*
X101478489Y-51228731D01*
X101484650Y-51231095D01*
X101673272Y-51260970D01*
X101863985Y-51250975D01*
X102048452Y-51201547D01*
X102218612Y-51114847D01*
X102367027Y-50994663D01*
X102487211Y-50846248D01*
X102573912Y-50676088D01*
X102623339Y-50491621D01*
X102633334Y-50300908D01*
X102603459Y-50112285D01*
X102601095Y-50106125D01*
X102601094Y-50106123D01*
X102537386Y-49940159D01*
X102537385Y-49940158D01*
X102535020Y-49933995D01*
X102483014Y-49853913D01*
X102434604Y-49779367D01*
X102434600Y-49779363D01*
X102431008Y-49773831D01*
X102389317Y-49732140D01*
X102355292Y-49669827D01*
X102360662Y-49599454D01*
X102361710Y-49597396D01*
X102411138Y-49412930D01*
X102421133Y-49222217D01*
X102391258Y-49033594D01*
X102388893Y-49027434D01*
X102388893Y-49027432D01*
X102325185Y-48861467D01*
X102325184Y-48861467D01*
X102322819Y-48855304D01*
X102270813Y-48775222D01*
X102222402Y-48700675D01*
X102222399Y-48700672D01*
X102218807Y-48695139D01*
X102083768Y-48560100D01*
X102078235Y-48556508D01*
X102078232Y-48556505D01*
X102003685Y-48508094D01*
X101923603Y-48456089D01*
X101917441Y-48453723D01*
X101917440Y-48453723D01*
X101751476Y-48390014D01*
X101751473Y-48390014D01*
X101745313Y-48387649D01*
X101556690Y-48357775D01*
X101365977Y-48367769D01*
X101364801Y-48368084D01*
X101296372Y-48359239D01*
X101242060Y-48313516D01*
X101221089Y-48245687D01*
X101240119Y-48177288D01*
X101257981Y-48154796D01*
X101524226Y-47888551D01*
X104946831Y-51311157D01*
X104826647Y-51459571D01*
X104739946Y-51629732D01*
X104690519Y-51814198D01*
X104690173Y-51820792D01*
X104690173Y-51820793D01*
X104681015Y-51995550D01*
X104680524Y-52004911D01*
X104710399Y-52193534D01*
X104712763Y-52199694D01*
X104712764Y-52199696D01*
X104776472Y-52365661D01*
X104778838Y-52371824D01*
X104830844Y-52451906D01*
X104879254Y-52526453D01*
X104879258Y-52526456D01*
X104882850Y-52531989D01*
X105017889Y-52667028D01*
X105023421Y-52670620D01*
X105023425Y-52670623D01*
X105097972Y-52719034D01*
X105178054Y-52771039D01*
X105184217Y-52773405D01*
X105350181Y-52837114D01*
X105350183Y-52837114D01*
X105356343Y-52839479D01*
X105544966Y-52869353D01*
X105554327Y-52868863D01*
X105729084Y-52859704D01*
X105729086Y-52859704D01*
X105735679Y-52859358D01*
X105920146Y-52809931D01*
X106090306Y-52723230D01*
X106238721Y-52603046D01*
X106358905Y-52454632D01*
X106445605Y-52284471D01*
X106495033Y-52100005D01*
X106505028Y-51909292D01*
X106475153Y-51720669D01*
X106472789Y-51714509D01*
X106472788Y-51714507D01*
X106409080Y-51548542D01*
X106409079Y-51548542D01*
X106406714Y-51542379D01*
X106354708Y-51462296D01*
X106306298Y-51387750D01*
X106306294Y-51387747D01*
X106302702Y-51382214D01*
X106167663Y-51247175D01*
X106162131Y-51243583D01*
X106162127Y-51243580D01*
X106087581Y-51195170D01*
X106007498Y-51143164D01*
X106001336Y-51140798D01*
X106001335Y-51140798D01*
X105835371Y-51077089D01*
X105835369Y-51077089D01*
X105829208Y-51074724D01*
X105640586Y-51044850D01*
X105449872Y-51054845D01*
X105265406Y-51104272D01*
X105095246Y-51190973D01*
X104946831Y-51311157D01*
X101524226Y-47888551D01*
X103050383Y-46362394D01*
X115229596Y-58541608D01*
X115109412Y-58690022D01*
X115022712Y-58860183D01*
X114973284Y-59044649D01*
X114963289Y-59235362D01*
X114993164Y-59423985D01*
X114995528Y-59430145D01*
X114995529Y-59430147D01*
X115059237Y-59596112D01*
X115061603Y-59602275D01*
X115113609Y-59682357D01*
X115162019Y-59756904D01*
X115162023Y-59756907D01*
X115165615Y-59762440D01*
X115300654Y-59897479D01*
X115306187Y-59901071D01*
X115306190Y-59901074D01*
X115380737Y-59949485D01*
X115460819Y-60001490D01*
X115466982Y-60003856D01*
X115632946Y-60067565D01*
X115632948Y-60067565D01*
X115639109Y-60069930D01*
X115827732Y-60099804D01*
X116018445Y-60089810D01*
X116202911Y-60040382D01*
X116373071Y-59953682D01*
X116521486Y-59833497D01*
X116641670Y-59685083D01*
X116728371Y-59514923D01*
X116777798Y-59330456D01*
X116787793Y-59139743D01*
X116757918Y-58951120D01*
X116755554Y-58944960D01*
X116755553Y-58944958D01*
X116691845Y-58778993D01*
X116691844Y-58778993D01*
X116689479Y-58772830D01*
X116637473Y-58692748D01*
X116589063Y-58618202D01*
X116589059Y-58618198D01*
X116585467Y-58612666D01*
X116450428Y-58477627D01*
X116444896Y-58474034D01*
X116444892Y-58474031D01*
X116370346Y-58425621D01*
X116290263Y-58373615D01*
X116284101Y-58371249D01*
X116284100Y-58371249D01*
X116118136Y-58307541D01*
X116118134Y-58307540D01*
X116111974Y-58305175D01*
X115923351Y-58275301D01*
X115732638Y-58285296D01*
X115548171Y-58334723D01*
X115378011Y-58421424D01*
X115229596Y-58541608D01*
X103050383Y-46362394D01*
X105775563Y-43637214D01*
X106361045Y-44222695D01*
X106240861Y-44371110D01*
X106154160Y-44541270D01*
X106104733Y-44725737D01*
X106094738Y-44916450D01*
X106124612Y-45105073D01*
X106126977Y-45111233D01*
X106126977Y-45111235D01*
X106190686Y-45277200D01*
X106193052Y-45283363D01*
X106245058Y-45363445D01*
X106293468Y-45437991D01*
X106293471Y-45437995D01*
X106297063Y-45443527D01*
X106432102Y-45578566D01*
X106437635Y-45582158D01*
X106437638Y-45582162D01*
X106512184Y-45630572D01*
X106592267Y-45682578D01*
X106598430Y-45684944D01*
X106764395Y-45748652D01*
X106764397Y-45748653D01*
X106770557Y-45751018D01*
X106959180Y-45780892D01*
X107149893Y-45770897D01*
X107334359Y-45721470D01*
X107504520Y-45634769D01*
X107652934Y-45514585D01*
X107773118Y-45366171D01*
X107859819Y-45196010D01*
X107909246Y-45011544D01*
X107918210Y-44840523D01*
X110189471Y-47111784D01*
X110069287Y-47260198D01*
X109982586Y-47430359D01*
X109933159Y-47614825D01*
X109923164Y-47805538D01*
X109953038Y-47994161D01*
X109955403Y-48000321D01*
X109955403Y-48000324D01*
X110008566Y-48138815D01*
X110021478Y-48172451D01*
X110073483Y-48252533D01*
X110121894Y-48327080D01*
X110121897Y-48327083D01*
X110125489Y-48332616D01*
X110260529Y-48467655D01*
X110266061Y-48471247D01*
X110266064Y-48471250D01*
X110340611Y-48519661D01*
X110420693Y-48571667D01*
X110454329Y-48584578D01*
X110592821Y-48637741D01*
X110592823Y-48637741D01*
X110598983Y-48640106D01*
X110787606Y-48669981D01*
X110978319Y-48659986D01*
X111162785Y-48610558D01*
X111332946Y-48523858D01*
X111481360Y-48403674D01*
X111601544Y-48255259D01*
X111688245Y-48085099D01*
X111737672Y-47900632D01*
X111747667Y-47709919D01*
X111717793Y-47521296D01*
X111715428Y-47515136D01*
X111715428Y-47515134D01*
X111651719Y-47349169D01*
X111651719Y-47349169D01*
X111649353Y-47343006D01*
X111597347Y-47262924D01*
X111548937Y-47188378D01*
X111548934Y-47188374D01*
X111545342Y-47182842D01*
X111410303Y-47047803D01*
X111404770Y-47044211D01*
X111404767Y-47044207D01*
X111330221Y-46995797D01*
X111250138Y-46943791D01*
X111243975Y-46941426D01*
X111243975Y-46941425D01*
X111078010Y-46877717D01*
X111078008Y-46877716D01*
X111071848Y-46875351D01*
X110883225Y-46845477D01*
X110692512Y-46855472D01*
X110508046Y-46904899D01*
X110337885Y-46991600D01*
X110189471Y-47111784D01*
X107918210Y-44840523D01*
X107919241Y-44820831D01*
X107889367Y-44632208D01*
X107887002Y-44626047D01*
X107887002Y-44626045D01*
X107823293Y-44460081D01*
X107823293Y-44460080D01*
X107820927Y-44453918D01*
X107768922Y-44373836D01*
X107720511Y-44299289D01*
X107720508Y-44299286D01*
X107716916Y-44293753D01*
X107581876Y-44158714D01*
X107576344Y-44155122D01*
X107576341Y-44155119D01*
X107501794Y-44106708D01*
X107421712Y-44054702D01*
X107415549Y-44052337D01*
X107415549Y-44052336D01*
X107249584Y-43988628D01*
X107249582Y-43988628D01*
X107243422Y-43986263D01*
X107054799Y-43956388D01*
X106864086Y-43966383D01*
X106679620Y-44015811D01*
X106509459Y-44102511D01*
X106361045Y-44222695D01*
X105775563Y-43637214D01*
X107499639Y-41913138D01*
X107561952Y-41879112D01*
X107632768Y-41884177D01*
X107677830Y-41913138D01*
X122336861Y-56572168D01*
X122370886Y-56634481D01*
G37*
G04 #@! TD.AperFunction*
M02*
