G04 #@! TF.GenerationSoftware,KiCad,Pcbnew,(6.0.9)*
G04 #@! TF.CreationDate,2022-11-30T18:40:26+01:00*
G04 #@! TF.ProjectId,parasite - 45deg,70617261-7369-4746-9520-2d2034356465,1.2.0*
G04 #@! TF.SameCoordinates,Original*
G04 #@! TF.FileFunction,Legend,Bot*
G04 #@! TF.FilePolarity,Positive*
%FSLAX46Y46*%
G04 Gerber Fmt 4.6, Leading zero omitted, Abs format (unit mm)*
G04 Created by KiCad (PCBNEW (6.0.9)) date 2022-11-30 18:40:26*
%MOMM*%
%LPD*%
G01*
G04 APERTURE LIST*
%ADD10C,0.120000*%
%ADD11C,0.150000*%
G04 APERTURE END LIST*
D10*
X59570174Y-90537689D02*
X73712309Y-104679825D01*
D11*
X85414978Y-64945421D02*
X85347634Y-65080108D01*
X85347634Y-65147451D01*
X85381306Y-65248467D01*
X85482321Y-65349482D01*
X85583337Y-65383154D01*
X85650680Y-65383154D01*
X85751695Y-65349482D01*
X86021069Y-65080108D01*
X85313963Y-64373001D01*
X85078260Y-64608703D01*
X85044589Y-64709719D01*
X85044589Y-64777062D01*
X85078260Y-64878077D01*
X85145604Y-64945421D01*
X85246619Y-64979093D01*
X85313963Y-64979093D01*
X85414978Y-64945421D01*
X85650680Y-64709719D01*
X84707871Y-64979093D02*
X84303810Y-65383154D01*
X85212947Y-65888230D02*
X84505840Y-65181123D01*
X84404825Y-66696352D02*
X84808886Y-66292291D01*
X84606856Y-66494322D02*
X83899749Y-65787215D01*
X84068108Y-65820887D01*
X84202795Y-65820887D01*
X84303810Y-65787215D01*
D10*
X97082188Y-51717526D02*
X105143206Y-50055825D01*
X94395183Y-75653091D02*
X96657924Y-77915833D01*
X105143206Y-50055825D02*
X107476658Y-52389278D01*
X88614585Y-60185130D02*
X86970561Y-68228470D01*
X86970561Y-68228470D02*
X89304014Y-70561922D01*
X112567827Y-57480447D02*
X114830569Y-59743188D01*
X96622569Y-77880477D02*
G75*
G03*
X100440946Y-77880477I1909188J1909188D01*
G01*
X114123462Y-63804458D02*
G75*
G03*
X114795213Y-63526210I-1J950003D01*
G01*
X114795212Y-63526209D02*
G75*
G03*
X114795213Y-59707833I-1909188J1909188D01*
G01*
X100440946Y-77880477D02*
G75*
G03*
X100719194Y-77208726I-671752J671751D01*
G01*
M02*
